<svg id="svg" version="1.1" xmlns="http://www.w3.org/2000/svg" xmlns:xlink="http://www.w3.org/1999/xlink" width="400" height="400" viewBox="0, 0, 400,400"><g id="svgg"><path id="path0" d="M21.361 7.219 C 19.172 7.877,16.662 10.494,15.173 13.669 L 13.800 16.600 13.686 42.100 L 13.572 67.600 17.786 67.600 L 22.000 67.600 22.009 47.100 C 22.020 20.462,21.754 21.200,31.338 21.200 C 41.360 21.200,41.019 20.286,40.933 46.901 L 40.866 67.601 41.733 67.819 C 42.210 67.938,44.130 67.983,46.000 67.918 L 49.400 67.800 49.510 43.800 C 49.647 14.156,49.271 11.908,43.552 8.120 L 41.861 7.000 32.230 6.923 C 26.934 6.881,22.043 7.014,21.361 7.219 M20.091 72.847 C 18.072 73.846,16.635 75.489,14.997 78.673 L 13.800 81.000 13.600 99.800 C 13.342 124.083,13.551 125.683,17.563 130.130 C 19.884 132.702,20.387 132.800,31.302 132.800 C 43.973 132.800,46.132 131.747,48.407 124.458 C 49.507 120.933,49.635 84.411,48.560 80.792 C 47.403 76.896,44.985 73.738,42.298 72.615 C 39.739 71.546,22.353 71.727,20.091 72.847 M37.710 86.961 C 40.571 88.879,40.588 88.961,40.715 101.800 C 40.876 117.927,40.568 118.503,31.672 118.729 C 22.321 118.966,21.927 118.294,22.084 102.350 L 22.200 90.467 23.417 88.734 C 25.070 86.378,26.371 85.980,32.000 86.110 C 35.699 86.196,36.818 86.363,37.710 86.961 M13.467 137.467 C 13.000 137.933,13.158 184.823,13.635 187.427 C 14.498 192.139,17.818 196.668,21.072 197.571 C 23.623 198.280,40.118 198.128,41.913 197.380 C 44.920 196.125,47.516 192.696,48.596 188.552 C 49.103 186.604,49.200 182.296,49.200 161.716 L 49.200 137.200 31.467 137.200 C 21.713 137.200,13.613 137.320,13.467 137.467 M40.798 164.300 C 40.795 183.243,40.216 184.306,30.119 183.932 C 24.880 183.738,22.875 182.417,21.983 178.569 C 21.567 176.777,21.461 151.873,21.867 151.467 C 22.013 151.320,26.333 151.200,31.467 151.200 L 40.800 151.200 40.798 164.300 M13.200 232.600 L 13.200 262.800 17.400 262.800 L 21.600 262.800 21.600 239.582 L 21.600 216.365 24.497 216.482 L 27.394 216.600 27.397 233.600 L 27.400 250.600 31.036 250.714 L 34.671 250.828 34.935 240.914 C 35.080 235.461,35.199 227.715,35.199 223.700 L 35.200 216.400 38.062 216.400 L 40.925 216.400 40.696 239.544 L 40.468 262.687 44.525 262.911 C 46.757 263.034,48.721 263.049,48.891 262.944 C 49.061 262.839,49.200 249.173,49.200 232.576 L 49.200 202.400 31.200 202.400 L 13.200 202.400 13.200 232.600 M13.200 274.196 L 13.200 281.200 17.976 281.200 C 20.603 281.200,22.834 281.335,22.933 281.500 C 23.032 281.665,23.017 286.592,22.899 292.449 L 22.685 303.097 18.381 306.561 C 16.014 308.466,13.876 310.267,13.630 310.563 C 13.325 310.932,13.218 313.728,13.292 319.410 L 13.400 327.717 18.329 323.659 C 24.141 318.873,23.280 319.142,24.599 321.700 C 27.245 326.834,29.370 328.000,36.082 328.000 C 42.140 328.000,43.755 327.244,46.382 323.179 C 48.698 319.596,48.742 319.049,48.877 292.000 L 49.000 267.400 31.100 267.296 L 13.200 267.192 13.200 274.196 M40.400 295.820 C 40.400 308.308,40.309 310.616,39.773 311.651 C 38.364 314.377,33.989 314.513,32.383 311.880 C 31.647 310.672,31.603 309.771,31.601 295.900 L 31.600 281.200 36.000 281.200 L 40.400 281.200 40.400 295.820 M13.110 355.100 C 13.007 381.151,13.025 381.893,13.809 384.650 C 16.677 394.721,27.922 396.318,32.693 387.330 C 34.614 383.712,34.800 381.716,34.800 364.707 C 34.800 347.721,34.878 347.097,37.069 346.547 C 40.345 345.725,40.387 346.040,40.394 371.100 L 40.400 393.200 44.600 393.200 L 48.800 393.200 48.800 368.820 C 48.800 340.218,48.716 339.522,44.741 334.994 C 41.269 331.040,34.537 331.250,30.859 335.428 C 27.470 339.278,27.440 339.471,27.206 359.239 C 26.977 378.620,26.953 378.774,24.100 378.794 C 21.525 378.811,21.600 379.530,21.600 354.800 L 21.600 332.400 17.400 332.400 L 13.200 332.400 13.110 355.100 " stroke="none" fill="#e9b25a" fill-rule="evenodd"></path><path id="path1" d="M19.692 3.178 C 17.257 3.781,12.400 8.019,12.400 9.541 C 12.400 9.794,12.240 10.000,12.043 10.000 C 11.590 10.000,10.548 12.587,10.179 14.630 C 10.023 15.493,9.760 16.380,9.595 16.600 C 9.430 16.820,9.228 28.733,9.147 43.072 L 9.000 69.145 10.175 70.372 C 10.821 71.048,11.654 71.600,12.026 71.600 C 13.116 71.600,13.727 72.596,13.005 73.196 C 12.672 73.472,12.400 73.869,12.400 74.078 C 12.400 74.286,12.160 74.697,11.867 74.990 C 11.573 75.284,11.020 76.576,10.636 77.862 C 10.253 79.148,9.728 80.632,9.469 81.161 C 8.818 82.493,8.798 122.823,9.448 123.639 C 9.694 123.947,10.024 124.912,10.181 125.781 C 10.452 127.281,11.053 128.595,12.778 131.456 L 13.535 132.713 12.312 132.958 C 11.640 133.092,10.620 133.697,10.045 134.301 L 9.000 135.400 9.000 161.839 C 9.000 181.084,9.126 188.540,9.464 189.239 C 9.719 189.768,10.230 191.190,10.599 192.400 C 10.968 193.610,11.598 194.960,12.000 195.400 C 13.232 196.748,13.161 197.689,11.800 198.058 C 11.120 198.243,10.209 198.963,9.698 199.720 L 8.796 201.055 8.806 241.988 L 8.815 282.920 10.236 284.260 C 11.616 285.562,11.754 285.600,15.028 285.600 L 18.400 285.600 18.387 293.100 C 18.374 300.758,18.286 301.244,16.731 302.200 C 13.732 304.046,9.208 308.330,8.919 309.600 C 8.659 310.739,8.458 325.821,8.651 329.600 C 8.679 330.150,8.628 341.760,8.538 355.400 C 8.378 379.365,8.552 384.441,9.592 386.315 C 9.801 386.692,10.361 387.945,10.836 389.100 C 11.310 390.255,11.828 391.200,11.986 391.200 C 12.145 391.200,12.606 391.816,13.012 392.570 C 13.417 393.323,14.166 394.129,14.675 394.361 C 15.184 394.593,15.600 394.939,15.600 395.131 C 15.600 398.013,30.128 397.639,32.323 394.700 C 32.610 394.315,33.060 393.999,33.323 393.997 C 33.585 393.995,34.243 393.230,34.784 392.297 L 35.768 390.600 36.046 392.400 C 36.742 396.912,37.241 397.200,44.366 397.200 C 49.843 397.200,51.823 396.788,52.211 395.567 C 52.344 395.145,52.622 394.800,52.827 394.800 C 53.312 394.800,53.331 342.528,52.846 342.229 C 52.652 342.108,52.267 340.813,51.990 339.349 C 51.714 337.886,51.198 336.386,50.844 336.017 C 50.490 335.649,49.760 334.515,49.223 333.500 C 48.685 332.484,47.830 331.430,47.323 331.159 C 46.140 330.526,46.151 329.868,47.356 329.224 C 47.882 328.942,48.510 328.327,48.753 327.856 C 49.361 326.677,50.108 325.534,50.683 324.905 C 50.949 324.614,51.464 323.347,51.827 322.088 C 52.190 320.830,52.692 319.440,52.943 319.000 C 53.904 317.316,53.770 201.118,52.806 200.006 C 52.363 199.496,52.000 198.930,52.000 198.750 C 52.000 198.570,51.415 198.268,50.700 198.078 C 49.338 197.716,49.087 196.646,50.165 195.800 C 50.813 195.292,52.400 191.729,52.400 190.782 C 52.400 190.389,52.625 189.992,52.900 189.900 C 53.736 189.622,53.850 135.271,53.016 134.951 C 52.677 134.821,52.400 134.493,52.400 134.221 C 52.400 133.699,50.751 132.800,49.794 132.800 C 49.152 132.800,49.406 131.653,50.194 131.000 C 50.754 130.535,52.400 126.941,52.400 126.182 C 52.400 125.899,52.625 125.592,52.900 125.500 C 53.551 125.283,53.639 80.137,52.989 79.685 C 52.763 79.528,52.260 78.370,51.872 77.110 C 51.483 75.851,50.948 74.681,50.683 74.510 C 49.384 73.676,49.255 72.571,50.397 72.065 C 51.006 71.796,52.021 71.132,52.652 70.589 L 53.800 69.603 53.918 44.702 C 54.036 19.620,53.891 16.216,52.597 13.735 C 52.271 13.111,52.004 12.366,52.002 12.080 C 51.994 10.240,47.841 5.209,45.088 3.704 C 43.673 2.930,22.467 2.491,19.692 3.178 M61.000 4.800 C 60.864 5.020,60.347 5.200,59.851 5.200 C 58.185 5.200,56.713 7.260,56.677 9.641 C 56.645 11.738,60.091 16.000,61.819 16.000 C 62.088 16.000,62.603 16.450,62.963 17.000 C 63.324 17.550,63.880 18.000,64.200 18.000 C 64.520 18.000,65.076 18.450,65.437 19.000 C 65.797 19.550,66.296 20.003,66.546 20.006 C 66.796 20.010,67.810 20.727,68.800 21.600 C 69.790 22.473,70.708 23.190,70.841 23.194 C 70.973 23.197,71.693 23.741,72.441 24.402 C 74.390 26.125,74.846 26.494,76.400 27.600 C 77.164 28.144,78.081 28.862,78.437 29.195 C 79.063 29.780,80.076 30.579,82.600 32.479 C 83.260 32.976,84.050 33.624,84.356 33.919 C 84.662 34.214,85.382 34.755,85.956 35.121 C 86.530 35.487,87.235 36.104,87.523 36.493 C 87.810 36.882,88.254 37.200,88.509 37.200 C 88.763 37.200,89.338 37.562,89.786 38.005 C 91.267 39.469,95.074 42.400,95.494 42.400 C 95.722 42.400,96.203 42.850,96.563 43.400 C 96.924 43.950,97.480 44.400,97.800 44.400 C 98.120 44.400,98.676 44.850,99.037 45.400 C 99.397 45.950,99.896 46.403,100.146 46.406 C 100.396 46.410,101.410 47.127,102.400 48.000 C 103.390 48.873,104.308 49.590,104.441 49.594 C 104.573 49.597,105.293 50.141,106.041 50.802 C 107.990 52.525,108.446 52.894,110.000 54.000 C 111.554 55.106,112.010 55.475,113.959 57.198 C 114.707 57.859,115.427 58.403,115.559 58.406 C 115.692 58.410,116.610 59.127,117.600 60.000 C 118.590 60.873,119.559 61.590,119.754 61.594 C 119.949 61.597,120.527 62.005,121.039 62.500 C 122.714 64.119,126.184 66.800,126.606 66.800 C 126.759 66.800,127.239 67.250,127.671 67.800 C 128.104 68.350,128.694 68.800,128.983 68.800 C 129.272 68.800,129.803 69.250,130.163 69.800 C 130.524 70.350,131.074 70.800,131.387 70.800 C 131.699 70.800,132.190 71.118,132.477 71.507 C 132.765 71.896,133.450 72.504,134.000 72.858 C 134.550 73.212,135.630 74.061,136.400 74.745 C 137.170 75.428,137.928 75.990,138.084 75.994 C 138.241 75.997,138.746 76.405,139.207 76.900 L 140.046 77.800 263.323 77.917 C 385.076 78.032,389.600 77.993,389.600 76.813 C 389.600 76.617,389.915 76.142,390.300 75.757 C 390.956 75.102,391.000 72.919,391.000 41.355 L 391.000 7.653 389.825 6.426 C 389.179 5.752,388.245 5.200,387.749 5.200 C 387.253 5.200,386.736 5.020,386.600 4.800 C 386.257 4.245,61.343 4.245,61.000 4.800 M42.913 7.339 C 45.723 8.515,48.760 13.169,49.597 17.584 C 50.210 20.816,50.139 67.301,49.520 67.920 C 49.209 68.231,47.593 68.400,44.930 68.400 L 40.820 68.400 40.710 47.069 L 40.600 25.737 39.473 24.260 C 37.467 21.630,36.812 21.400,31.349 21.400 C 22.305 21.400,22.656 20.397,22.400 47.000 L 22.200 67.800 17.600 67.800 L 13.000 67.800 13.138 43.000 C 13.227 27.123,13.429 17.696,13.699 16.800 C 14.826 13.071,15.471 11.785,17.153 9.914 C 18.155 8.800,19.521 7.650,20.188 7.360 C 21.942 6.595,41.095 6.578,42.913 7.339 M386.600 41.400 L 386.600 73.400 264.497 73.501 L 142.393 73.601 136.960 69.301 C 133.971 66.935,131.048 64.646,130.463 64.214 C 129.447 63.462,122.108 57.672,114.000 51.226 C 111.910 49.565,109.014 47.304,107.565 46.203 C 106.115 45.101,102.989 42.670,100.617 40.800 C 89.536 32.063,87.170 30.201,79.780 24.400 C 75.435 20.990,70.062 16.759,67.840 14.998 C 65.618 13.238,63.213 11.379,62.495 10.868 C 61.778 10.357,61.293 9.772,61.419 9.569 C 61.559 9.343,124.935 9.238,224.124 9.300 L 386.600 9.400 386.600 41.400 M36.081 25.920 C 36.490 26.329,36.623 30.798,36.711 47.020 L 36.821 67.600 31.483 67.600 L 26.144 67.600 26.298 47.900 C 26.449 28.584,26.595 26.365,27.777 25.486 C 28.475 24.967,35.495 25.334,36.081 25.920 M43.000 72.466 C 44.833 73.483,46.578 75.530,48.059 78.400 L 49.400 81.000 49.400 102.400 L 49.400 123.800 48.056 126.400 C 44.688 132.916,43.787 133.268,30.879 133.119 L 20.600 133.000 19.114 131.973 C 16.111 129.896,14.057 126.216,13.143 121.273 C 12.907 119.997,12.808 111.826,12.897 100.873 L 13.044 82.600 14.111 79.871 C 15.697 75.815,17.957 73.160,20.674 72.164 C 23.046 71.293,41.333 71.541,43.000 72.466 M25.287 87.277 C 22.697 88.878,22.612 89.328,22.486 102.200 C 22.331 118.049,22.415 118.200,31.349 118.200 C 40.379 118.200,40.600 117.822,40.600 102.370 C 40.600 89.920,40.484 89.356,37.512 87.389 C 35.449 86.024,27.434 85.951,25.287 87.277 M35.475 90.714 C 37.162 91.787,37.451 112.279,35.802 113.932 C 34.895 114.842,27.884 114.466,26.948 113.458 C 25.970 112.402,25.388 92.400,26.336 92.400 C 26.520 92.400,26.877 91.950,27.127 91.400 C 27.594 90.376,34.102 89.841,35.475 90.714 M49.514 162.700 L 49.400 188.600 48.002 191.400 C 44.813 197.787,43.328 198.398,31.000 198.389 C 18.962 198.380,17.237 197.594,14.283 190.766 L 13.000 187.800 12.888 162.819 C 12.827 149.080,12.866 137.605,12.976 137.319 C 13.135 136.904,16.832 136.800,31.401 136.800 L 49.628 136.800 49.514 162.700 M22.018 164.500 C 22.043 183.052,22.117 183.200,31.405 183.200 C 40.400 183.200,40.400 183.200,40.400 165.016 L 40.400 151.600 31.200 151.600 L 22.000 151.600 22.018 164.500 M36.400 166.571 C 36.400 180.195,36.805 179.200,31.260 179.200 C 25.640 179.200,26.000 180.076,26.000 166.395 L 26.000 155.200 31.200 155.200 L 36.400 155.200 36.400 166.571 M59.600 163.883 C 59.270 164.003,58.460 164.664,57.800 165.351 L 56.600 166.600 56.600 199.928 C 56.600 231.253,56.642 233.280,57.300 233.648 C 57.685 233.863,58.000 234.236,58.000 234.476 C 58.000 236.022,52.722 235.974,223.481 235.987 C 387.252 236.000,389.600 235.983,389.600 234.764 C 389.600 234.595,389.915 234.142,390.300 233.757 C 391.384 232.673,391.384 166.926,390.300 165.843 C 389.915 165.458,389.600 164.993,389.600 164.811 C 389.600 164.628,389.033 164.281,388.340 164.039 C 387.031 163.583,60.845 163.427,59.600 163.883 M386.600 199.800 L 386.600 231.400 223.900 231.500 L 61.200 231.601 61.200 199.800 L 61.200 167.999 223.900 168.100 L 386.600 168.200 386.600 199.800 M49.502 232.500 L 49.605 263.200 45.002 263.200 L 40.400 263.200 40.400 240.000 L 40.400 216.800 38.000 216.800 L 35.600 216.800 35.600 223.735 C 35.600 227.549,35.481 235.295,35.336 240.948 L 35.071 251.227 31.036 251.113 L 27.000 251.000 26.896 233.900 L 26.791 216.800 24.396 216.800 L 22.000 216.800 22.000 234.537 C 22.000 244.292,21.882 254.732,21.738 257.737 L 21.476 263.200 17.138 263.200 L 12.800 263.200 12.800 232.667 C 12.800 215.873,12.922 202.012,13.071 201.863 C 13.220 201.714,21.455 201.639,31.371 201.696 L 49.400 201.800 49.502 232.500 M36.400 258.900 L 36.400 262.800 31.000 262.800 L 25.600 262.800 25.604 260.300 C 25.607 258.925,25.713 257.170,25.841 256.400 L 26.072 255.000 31.236 255.000 L 36.400 255.000 36.400 258.900 M49.400 292.210 L 49.400 317.421 48.202 320.410 C 45.785 326.442,42.822 328.394,36.077 328.398 C 29.427 328.402,26.661 326.896,24.356 322.019 L 23.400 319.996 18.540 323.998 C 12.016 329.370,12.395 329.575,12.423 320.700 C 12.456 310.340,12.135 311.196,17.700 306.619 L 22.400 302.753 22.400 292.176 L 22.400 281.600 17.600 281.600 L 12.800 281.600 12.800 274.196 L 12.800 266.792 31.100 266.896 L 49.400 267.000 49.400 292.210 M32.000 295.740 C 32.000 312.610,32.229 313.600,36.126 313.600 C 39.914 313.600,40.400 311.526,40.400 295.351 L 40.400 281.600 36.200 281.600 L 32.000 281.600 32.000 295.740 M36.400 297.376 C 36.400 304.796,36.252 309.244,36.000 309.400 C 35.737 309.563,35.600 305.537,35.600 297.624 C 35.600 289.875,35.742 285.600,36.000 285.600 C 36.258 285.600,36.400 289.792,36.400 297.376 M141.400 321.472 C 140.126 321.762,138.000 322.809,138.000 323.145 C 138.000 323.314,137.280 323.857,136.400 324.352 C 135.520 324.847,134.800 325.420,134.800 325.626 C 134.800 325.832,134.613 326.000,134.384 326.000 C 133.917 326.000,131.985 327.336,130.478 328.700 C 129.931 329.195,129.246 329.600,128.956 329.600 C 128.666 329.600,128.235 329.960,128.000 330.400 C 127.765 330.840,127.334 331.200,127.044 331.200 C 126.754 331.200,126.069 331.605,125.522 332.100 C 124.015 333.464,122.083 334.800,121.616 334.800 C 121.387 334.800,121.200 334.962,121.200 335.160 C 121.200 335.359,120.525 335.917,119.700 336.402 C 118.875 336.886,118.056 337.534,117.880 337.841 C 117.704 338.149,117.390 338.400,117.181 338.400 C 116.771 338.400,112.226 341.581,111.123 342.641 C 110.751 342.998,110.023 343.510,109.505 343.779 C 108.987 344.048,108.212 344.556,107.782 344.908 C 105.725 346.592,103.155 348.400,102.819 348.400 C 102.614 348.400,102.210 348.733,101.923 349.140 C 101.635 349.548,100.824 350.178,100.120 350.540 C 99.416 350.903,98.696 351.425,98.520 351.700 C 98.344 351.975,97.570 352.545,96.800 352.967 C 96.030 353.389,94.970 354.154,94.445 354.667 C 93.920 355.180,93.247 355.600,92.949 355.600 C 92.651 355.600,92.182 355.960,91.907 356.400 C 91.632 356.840,91.257 357.200,91.073 357.200 C 90.890 357.200,89.687 358.010,88.400 359.000 C 87.113 359.990,85.876 360.800,85.650 360.800 C 85.424 360.800,85.096 361.035,84.920 361.322 C 84.744 361.609,83.925 362.254,83.100 362.755 C 82.275 363.255,81.600 363.831,81.600 364.033 C 81.600 364.235,81.413 364.400,81.184 364.400 C 80.704 364.400,78.267 366.048,78.063 366.511 C 77.988 366.682,77.245 367.169,76.412 367.594 C 75.580 368.018,74.792 368.644,74.662 368.983 C 74.532 369.322,74.219 369.600,73.967 369.600 C 73.519 369.600,69.214 372.611,67.966 373.797 C 67.618 374.129,67.168 374.403,66.966 374.406 C 66.765 374.410,66.023 374.905,65.318 375.506 C 64.613 376.108,63.099 377.230,61.955 378.000 C 60.810 378.770,59.137 380.113,58.237 380.985 L 56.600 382.571 56.600 386.985 L 56.600 391.400 57.910 392.800 L 59.220 394.200 223.800 394.200 L 388.380 394.200 389.690 392.800 L 391.000 391.400 391.000 357.785 L 391.000 324.171 389.705 322.785 L 388.411 321.400 265.305 321.345 C 197.597 321.314,141.840 321.372,141.400 321.472 M386.603 326.500 C 386.722 326.995,386.771 341.440,386.710 358.600 L 386.600 389.800 223.900 389.900 L 61.200 390.001 61.200 387.082 L 61.200 384.163 65.500 381.096 C 67.865 379.410,72.050 376.403,74.800 374.415 C 77.550 372.426,81.510 369.573,83.600 368.073 C 85.690 366.574,90.100 363.396,93.400 361.010 C 96.700 358.625,100.840 355.637,102.600 354.371 C 104.360 353.104,110.300 348.826,115.800 344.865 C 121.300 340.904,126.340 337.277,127.000 336.804 C 127.660 336.332,129.550 334.948,131.200 333.729 C 132.850 332.510,134.830 331.087,135.600 330.568 C 136.370 330.048,138.248 328.718,139.774 327.611 L 142.548 325.600 264.466 325.600 L 386.385 325.600 386.603 326.500 M23.100 328.233 C 23.001 328.333,22.427 328.159,21.825 327.847 C 20.826 327.328,20.793 327.243,21.452 326.875 C 22.138 326.491,23.621 327.713,23.100 328.233 M26.918 330.878 L 27.904 331.757 27.052 333.074 C 25.937 334.797,25.600 334.741,25.600 332.833 C 25.600 331.971,25.491 330.981,25.357 330.633 C 25.012 329.732,25.764 329.850,26.918 330.878 M21.600 354.258 C 21.819 378.895,21.766 378.400,24.200 378.400 C 26.577 378.400,26.581 378.370,26.800 359.059 C 27.025 339.206,26.886 340.125,30.349 335.493 C 33.714 330.992,41.322 330.592,45.048 334.721 C 49.088 339.198,49.200 340.106,49.200 368.465 L 49.200 393.185 48.300 393.410 C 47.805 393.534,45.780 393.582,43.800 393.518 L 40.200 393.400 40.200 371.400 C 40.200 346.977,40.214 347.119,37.763 346.880 C 35.385 346.647,35.420 346.396,35.200 365.761 L 35.000 383.400 33.672 386.200 C 28.251 397.635,15.182 395.300,12.810 382.473 C 12.180 379.063,12.256 332.704,12.893 332.067 C 13.234 331.726,14.618 331.609,17.393 331.687 L 21.400 331.800 21.600 354.258 " stroke="none" fill="#050404" fill-rule="evenodd"></path><path id="path2" d="M63.000 10.639 C 64.160 11.616,83.587 26.948,87.786 30.200 C 88.922 31.080,92.250 33.690,95.182 36.000 C 100.222 39.970,102.409 41.680,105.418 44.000 C 106.131 44.550,111.616 48.870,117.607 53.600 C 123.598 58.330,129.537 63.010,130.805 64.000 C 132.074 64.990,133.803 66.340,134.649 67.000 C 135.495 67.660,137.602 69.325,139.332 70.700 L 142.477 73.200 264.238 73.200 L 386.000 73.200 386.000 41.400 L 386.000 9.600 223.900 9.614 L 61.800 9.629 63.000 10.639 M61.600 199.800 L 61.600 231.200 223.800 231.200 L 386.000 231.200 386.000 199.800 L 386.000 168.400 223.800 168.400 L 61.600 168.400 61.600 199.800 M139.126 328.514 C 137.215 329.881,127.053 337.210,116.544 344.800 C 106.035 352.390,97.035 358.870,96.545 359.200 C 96.055 359.530,93.801 361.150,91.537 362.800 C 89.273 364.450,86.966 366.107,86.410 366.482 C 85.855 366.858,84.050 368.162,82.400 369.380 C 79.519 371.507,73.676 375.728,65.600 381.514 L 61.800 384.237 61.682 386.919 L 61.563 389.600 223.782 389.600 L 386.000 389.600 386.000 357.800 L 386.000 326.000 264.300 326.014 L 142.600 326.028 139.126 328.514 " stroke="none" fill="#db0c4b" fill-rule="evenodd"></path><path id="path3" d="M61.428 9.554 C 61.308 9.750,61.522 10.155,61.904 10.455 C 62.534 10.948,62.548 10.933,62.051 10.300 C 61.528 9.634,69.295 9.600,223.956 9.600 L 386.409 9.600 386.305 41.580 C 386.247 59.169,386.336 73.424,386.502 73.258 C 386.669 73.091,386.759 58.655,386.702 41.178 L 386.600 9.400 224.124 9.300 C 129.790 9.241,61.556 9.348,61.428 9.554 M48.856 15.600 C 48.856 15.930,49.011 16.560,49.200 17.000 C 49.417 17.504,49.544 17.578,49.544 17.200 C 49.544 16.870,49.389 16.240,49.200 15.800 C 48.983 15.296,48.856 15.222,48.856 15.600 M13.384 35.200 C 13.384 44.990,13.436 48.995,13.500 44.100 C 13.563 39.205,13.563 31.195,13.500 26.300 C 13.436 21.405,13.384 25.410,13.384 35.200 M49.598 43.200 L 49.400 67.800 45.000 68.021 L 40.600 68.242 44.851 68.321 C 48.027 68.380,49.216 68.262,49.554 67.855 C 49.882 67.460,49.977 60.614,49.902 42.955 L 49.797 18.600 49.598 43.200 M38.597 23.201 C 40.493 25.418,40.520 25.442,40.086 24.600 C 39.859 24.160,39.162 23.351,38.537 22.801 L 37.400 21.803 38.597 23.201 M22.000 47.480 C 21.890 58.744,21.937 67.824,22.104 67.656 C 22.271 67.489,22.361 58.273,22.304 47.176 L 22.200 27.000 22.000 47.480 M12.878 60.276 C 12.835 64.278,12.935 67.637,13.100 67.739 C 13.265 67.842,13.353 65.737,13.295 63.063 C 13.099 53.944,12.957 52.991,12.878 60.276 M26.500 71.899 C 29.085 71.968,33.315 71.968,35.900 71.899 C 38.485 71.829,36.370 71.772,31.200 71.772 C 26.030 71.772,23.915 71.829,26.500 71.899 M18.067 73.900 L 16.565 75.400 17.982 74.201 C 18.762 73.542,19.571 72.867,19.780 72.701 C 19.989 72.535,20.027 72.400,19.865 72.400 C 19.702 72.400,18.893 73.075,18.067 73.900 M15.355 77.012 C 14.990 77.569,14.764 78.098,14.853 78.187 C 14.942 78.276,15.318 77.820,15.689 77.174 C 16.514 75.736,16.269 75.617,15.355 77.012 M13.293 83.200 C 13.293 83.970,13.375 84.285,13.476 83.900 C 13.576 83.515,13.576 82.885,13.476 82.500 C 13.375 82.115,13.293 82.430,13.293 83.200 M12.984 102.600 C 12.984 112.500,13.036 116.493,13.100 111.473 C 13.163 106.453,13.163 98.353,13.100 93.473 C 13.036 88.593,12.984 92.700,12.984 102.600 M22.256 91.284 C 22.121 91.788,22.047 97.060,22.091 103.000 L 22.170 113.800 22.385 102.200 C 22.503 95.820,22.578 90.548,22.551 90.484 C 22.524 90.420,22.391 90.780,22.256 91.284 M26.539 118.494 C 27.114 118.860,35.152 118.842,36.087 118.472 C 36.465 118.322,34.368 118.200,31.426 118.200 C 28.485 118.200,26.286 118.332,26.539 118.494 M48.486 124.661 C 48.239 125.465,48.196 125.960,48.390 125.761 C 48.782 125.361,49.389 123.200,49.110 123.200 C 49.014 123.200,48.732 123.858,48.486 124.661 M40.800 132.800 C 39.976 133.064,39.941 133.126,40.600 133.154 C 41.040 133.173,41.670 133.013,42.000 132.800 C 42.701 132.347,42.214 132.347,40.800 132.800 M23.516 133.097 C 24.899 133.175,27.059 133.174,28.316 133.095 C 29.572 133.016,28.440 132.952,25.800 132.953 C 23.160 132.953,22.132 133.018,23.516 133.097 M13.067 137.067 C 12.724 137.410,12.795 186.297,13.140 187.525 C 13.283 188.034,13.400 176.829,13.400 162.625 C 13.400 148.421,13.385 136.800,13.367 136.800 C 13.348 136.800,13.213 136.920,13.067 137.067 M49.386 167.000 C 49.386 178.220,49.437 182.868,49.500 177.328 C 49.562 171.788,49.562 162.608,49.500 156.928 C 49.437 151.248,49.386 155.780,49.386 167.000 M31.294 151.496 L 40.389 151.615 40.503 164.307 L 40.617 177.000 40.608 164.200 L 40.600 151.400 31.400 151.389 L 22.200 151.378 31.294 151.496 M386.200 199.800 C 386.200 217.248,386.335 231.440,386.500 231.338 C 386.665 231.236,386.800 217.044,386.800 199.800 C 386.800 182.556,386.665 168.364,386.500 168.262 C 386.335 168.160,386.200 182.352,386.200 199.800 M22.006 178.233 C 22.009 178.655,22.195 179.270,22.418 179.600 C 22.715 180.038,22.752 179.876,22.556 179.000 C 22.227 177.529,21.998 177.210,22.006 178.233 M25.376 182.970 C 26.007 183.481,27.136 183.585,31.376 183.522 L 36.600 183.444 31.200 183.222 C 28.230 183.100,25.530 182.852,25.200 182.670 C 24.870 182.489,24.949 182.624,25.376 182.970 M48.846 188.067 C 48.821 188.434,48.696 189.064,48.570 189.467 C 48.352 190.162,48.363 190.163,48.797 189.487 C 49.048 189.096,49.173 188.466,49.073 188.087 C 48.911 187.468,48.888 187.466,48.846 188.067 M42.600 197.227 C 41.940 197.650,41.605 197.997,41.856 197.998 C 42.106 197.999,42.736 197.646,43.256 197.213 C 44.445 196.223,44.159 196.229,42.600 197.227 M26.300 198.299 C 28.995 198.368,33.405 198.368,36.100 198.299 C 38.795 198.230,36.590 198.173,31.200 198.173 C 25.810 198.173,23.605 198.230,26.300 198.299 M12.985 202.096 C 12.879 202.373,12.841 212.860,12.900 225.400 L 13.007 248.200 13.103 225.100 L 13.200 202.000 31.198 202.000 L 49.195 202.000 49.301 232.500 L 49.407 263.000 49.404 232.400 L 49.400 201.800 31.289 201.696 C 17.014 201.614,13.137 201.699,12.985 202.096 M21.783 216.900 C 21.678 217.175,21.640 226.130,21.700 236.800 L 21.808 256.200 21.904 236.500 L 22.000 216.800 24.396 216.800 L 26.791 216.800 26.896 233.900 L 27.000 251.000 31.200 251.023 L 35.400 251.046 31.300 250.909 L 27.200 250.772 27.200 233.586 L 27.200 216.400 24.587 216.400 C 22.866 216.400,21.910 216.571,21.783 216.900 M35.293 227.100 L 35.386 237.800 35.500 227.319 L 35.613 216.838 38.107 216.696 L 40.600 216.554 37.900 216.477 L 35.200 216.400 35.293 227.100 M12.800 267.096 C 12.800 267.263,20.988 267.351,30.997 267.292 L 49.194 267.184 49.302 291.192 L 49.409 315.200 49.405 291.100 L 49.400 267.000 31.100 266.896 C 21.035 266.839,12.800 266.929,12.800 267.096 M12.799 281.300 C 12.800 281.465,14.960 281.600,17.600 281.600 L 22.400 281.600 22.400 292.074 C 22.400 302.366,22.384 302.566,21.500 303.574 L 20.600 304.600 21.706 303.624 L 22.813 302.649 22.706 292.024 L 22.600 281.400 17.699 281.200 C 15.004 281.090,12.799 281.135,12.799 281.300 M31.867 281.467 C 31.501 281.832,31.539 310.085,31.906 310.663 C 32.068 310.917,32.149 304.488,32.086 296.377 L 31.972 281.628 36.086 281.499 L 40.200 281.369 36.167 281.284 C 33.948 281.238,32.013 281.320,31.867 281.467 M39.632 310.774 C 39.614 311.090,39.200 311.810,38.711 312.374 L 37.823 313.400 38.959 312.343 C 39.584 311.762,39.998 311.042,39.879 310.743 C 39.705 310.305,39.657 310.311,39.632 310.774 M12.567 320.400 C 12.567 324.690,12.626 326.445,12.698 324.300 C 12.770 322.155,12.770 318.645,12.698 316.500 C 12.626 314.355,12.567 316.110,12.567 320.400 M48.859 316.600 C 48.820 317.260,48.696 318.250,48.583 318.800 L 48.377 319.800 48.808 318.814 C 49.044 318.272,49.168 317.282,49.083 316.614 L 48.928 315.400 48.859 316.600 M26.544 325.509 C 26.860 326.021,29.200 327.753,29.200 327.475 C 29.200 327.376,28.539 326.791,27.732 326.175 C 26.924 325.559,26.389 325.259,26.544 325.509 M203.300 325.900 C 236.905 325.956,291.895 325.956,325.500 325.900 C 359.105 325.844,331.610 325.797,264.400 325.797 C 197.190 325.797,169.695 325.844,203.300 325.900 M386.498 357.900 L 386.400 389.599 223.700 389.700 L 61.000 389.801 223.713 389.900 C 353.588 389.980,386.464 389.899,386.616 389.500 C 386.721 389.225,386.759 374.870,386.701 357.600 L 386.595 326.200 386.498 357.900 M33.700 328.296 C 34.965 328.375,37.035 328.375,38.300 328.296 C 39.565 328.216,38.530 328.151,36.000 328.151 C 33.470 328.151,32.435 328.216,33.700 328.296 M12.880 332.080 C 12.515 332.445,12.423 338.412,12.495 356.980 L 12.591 381.400 12.795 356.800 L 13.000 332.200 17.262 332.200 C 19.607 332.200,21.441 332.065,21.339 331.900 C 21.021 331.387,13.411 331.549,12.880 332.080 M27.427 340.833 C 27.082 341.995,26.810 343.318,26.823 343.773 C 26.836 344.228,27.177 343.340,27.580 341.800 C 28.446 338.499,28.333 337.784,27.427 340.833 M48.988 368.200 C 48.988 382.060,49.039 387.672,49.100 380.671 C 49.161 373.670,49.161 362.330,49.100 355.471 C 49.038 348.612,48.988 354.340,48.988 368.200 M34.983 365.800 C 34.983 374.820,35.035 378.567,35.099 374.127 C 35.164 369.687,35.164 362.307,35.100 357.727 C 35.035 353.147,34.983 356.780,34.983 365.800 M40.185 386.700 L 40.200 393.400 44.200 393.421 L 48.200 393.442 44.310 393.307 L 40.419 393.172 40.295 386.586 L 40.170 379.999 40.185 386.700 M34.250 383.650 C 33.917 385.317,34.240 385.640,34.600 384.000 C 34.752 383.309,34.793 382.659,34.691 382.558 C 34.589 382.456,34.391 382.947,34.250 383.650 M22.700 393.482 C 23.195 393.578,24.005 393.578,24.500 393.482 C 24.995 393.387,24.590 393.309,23.600 393.309 C 22.610 393.309,22.205 393.387,22.700 393.482 " stroke="none" fill="#5c441c" fill-rule="evenodd"></path><path id="path4" d="M61.600 9.733 C 61.600 9.843,62.320 10.503,63.200 11.200 C 64.080 11.897,64.800 12.377,64.800 12.267 C 64.800 12.157,64.080 11.497,63.200 10.800 C 62.320 10.103,61.600 9.623,61.600 9.733 M386.098 41.301 L 386.000 73.203 264.038 73.101 C 196.959 73.046,142.160 73.135,142.262 73.300 C 142.610 73.864,386.001 73.664,386.216 73.100 C 386.321 72.825,386.359 58.380,386.301 41.000 L 386.195 9.400 386.098 41.301 M80.544 24.709 C 80.860 25.221,83.200 26.953,83.200 26.675 C 83.200 26.576,82.539 25.991,81.732 25.375 C 80.924 24.759,80.389 24.459,80.544 24.709 M40.980 41.400 C 40.980 49.100,41.034 52.193,41.099 48.274 C 41.165 44.355,41.165 38.055,41.099 34.274 C 41.034 30.493,40.980 33.700,40.980 41.400 M86.400 29.325 C 86.400 29.424,87.061 30.009,87.868 30.625 C 88.676 31.241,89.211 31.541,89.056 31.291 C 88.740 30.779,86.400 29.047,86.400 29.325 M101.200 40.925 C 101.200 41.024,101.861 41.609,102.668 42.225 C 103.476 42.841,104.011 43.141,103.856 42.891 C 103.540 42.379,101.200 40.647,101.200 40.925 M104.800 43.725 C 104.800 43.824,105.461 44.409,106.268 45.025 C 107.076 45.641,107.611 45.941,107.456 45.691 C 107.140 45.179,104.800 43.447,104.800 43.725 M114.144 51.109 C 114.460 51.621,116.800 53.353,116.800 53.075 C 116.800 52.976,116.139 52.391,115.332 51.775 C 114.524 51.159,113.989 50.859,114.144 51.109 M13.387 60.400 L 13.400 67.800 17.400 67.821 L 21.400 67.842 17.509 67.707 L 13.618 67.572 13.496 60.286 L 13.374 53.000 13.387 60.400 M129.200 62.925 C 129.200 63.024,129.861 63.609,130.668 64.225 C 131.476 64.841,132.011 65.141,131.856 64.891 C 131.540 64.379,129.200 62.647,129.200 62.925 M49.385 102.400 C 49.385 112.630,49.436 116.815,49.500 111.700 C 49.563 106.585,49.563 98.215,49.500 93.100 C 49.436 87.985,49.385 92.170,49.385 102.400 M13.383 101.200 C 13.383 110.550,13.436 114.375,13.500 109.700 C 13.564 105.025,13.564 97.375,13.500 92.700 C 13.436 88.025,13.383 91.850,13.383 101.200 M29.315 86.296 C 30.588 86.376,32.568 86.375,33.715 86.294 C 34.862 86.214,33.820 86.149,31.400 86.150 C 28.980 86.151,28.042 86.216,29.315 86.296 M32.700 133.096 C 34.075 133.174,36.325 133.174,37.700 133.096 C 39.075 133.018,37.950 132.954,35.200 132.954 C 32.450 132.954,31.325 133.018,32.700 133.096 M13.464 137.096 C 13.361 137.263,21.353 137.351,31.226 137.292 L 49.175 137.184 49.306 141.892 L 49.437 146.600 49.418 141.800 L 49.400 137.000 31.526 136.896 C 21.696 136.839,13.568 136.929,13.464 137.096 M21.779 164.600 C 21.779 171.860,21.833 174.886,21.899 171.325 C 21.965 167.764,21.966 161.824,21.899 158.125 C 21.833 154.426,21.779 157.340,21.779 164.600 M61.384 168.500 C 61.279 168.775,61.240 183.040,61.297 200.200 L 61.400 231.400 223.800 231.400 L 386.200 231.400 386.200 199.800 L 386.200 168.200 223.888 168.100 C 94.248 168.019,61.537 168.100,61.384 168.500 M386.000 199.800 L 386.000 231.200 223.800 231.200 L 61.600 231.200 61.600 199.800 L 61.600 168.400 223.800 168.400 L 386.000 168.400 386.000 199.800 M29.100 183.895 C 30.255 183.976,32.145 183.976,33.300 183.895 C 34.455 183.814,33.510 183.748,31.200 183.748 C 28.890 183.748,27.945 183.814,29.100 183.895 M22.100 202.300 C 27.105 202.363,35.295 202.363,40.300 202.300 C 45.305 202.236,41.210 202.184,31.200 202.184 C 21.190 202.184,17.095 202.236,22.100 202.300 M40.584 233.600 C 40.584 243.170,40.636 247.085,40.700 242.300 C 40.763 237.515,40.763 229.685,40.700 224.900 C 40.636 220.115,40.584 224.030,40.584 233.600 M27.328 219.200 C 27.328 220.630,27.401 221.215,27.489 220.500 C 27.578 219.785,27.578 218.615,27.489 217.900 C 27.401 217.185,27.328 217.770,27.328 219.200 M34.964 244.200 C 34.963 247.940,35.023 249.524,35.097 247.720 C 35.171 245.915,35.172 242.855,35.098 240.920 C 35.025 238.984,34.964 240.460,34.964 244.200 M12.966 255.200 C 12.966 259.270,13.025 260.935,13.098 258.900 C 13.171 256.865,13.171 253.535,13.098 251.500 C 13.025 249.465,12.966 251.130,12.966 255.200 M15.315 263.096 C 16.588 263.176,18.568 263.175,19.715 263.094 C 20.862 263.014,19.820 262.949,17.400 262.950 C 14.980 262.951,14.042 263.016,15.315 263.096 M42.100 263.091 C 42.925 263.178,44.275 263.178,45.100 263.091 C 45.925 263.005,45.250 262.934,43.600 262.934 C 41.950 262.934,41.275 263.005,42.100 263.091 M12.964 274.200 C 12.963 277.940,13.023 279.524,13.097 277.720 C 13.171 275.915,13.172 272.855,13.098 270.920 C 13.025 268.984,12.964 270.460,12.964 274.200 M48.985 296.200 C 48.985 306.980,49.037 311.333,49.100 305.872 C 49.163 300.412,49.163 291.592,49.100 286.272 C 49.037 280.953,48.985 285.420,48.985 296.200 M22.795 284.118 L 22.991 287.000 23.116 284.441 C 23.185 283.033,23.097 281.736,22.921 281.559 C 22.744 281.381,22.688 282.533,22.795 284.118 M13.280 310.480 C 12.937 310.823,12.800 313.387,12.800 319.480 C 12.800 327.394,12.994 328.903,13.838 327.538 C 14.015 327.252,13.948 327.185,13.662 327.362 C 12.989 327.777,13.007 311.153,13.680 310.480 C 13.944 310.216,14.070 310.000,13.960 310.000 C 13.850 310.000,13.544 310.216,13.280 310.480 M386.191 357.800 C 386.191 375.400,386.240 382.542,386.300 373.670 C 386.360 364.799,386.360 350.399,386.300 341.670 C 386.240 332.942,386.191 340.200,386.191 357.800 M12.984 332.500 C 12.878 332.775,12.841 343.080,12.900 355.400 L 13.007 377.800 13.103 355.114 L 13.200 332.428 17.300 332.298 L 21.400 332.169 17.287 332.084 C 14.302 332.023,13.122 332.137,12.984 332.500 M36.707 332.290 C 37.426 332.379,38.506 332.377,39.107 332.286 C 39.708 332.195,39.120 332.122,37.800 332.124 C 36.480 332.126,35.988 332.201,36.707 332.290 M131.400 333.835 L 130.200 334.866 131.500 334.006 C 132.215 333.533,132.800 333.068,132.800 332.973 C 132.800 332.673,132.631 332.778,131.400 333.835 M121.400 341.035 L 120.200 342.066 121.500 341.206 C 122.215 340.733,122.800 340.268,122.800 340.173 C 122.800 339.873,122.631 339.978,121.400 341.035 M26.982 360.200 C 26.982 369.000,27.035 372.543,27.100 368.073 C 27.164 363.604,27.164 356.404,27.099 352.073 C 27.035 347.743,26.982 351.400,26.982 360.200 M78.200 372.235 L 77.000 373.266 78.300 372.406 C 79.015 371.933,79.600 371.468,79.600 371.373 C 79.600 371.073,79.431 371.178,78.200 372.235 M68.200 379.435 L 67.000 380.466 68.300 379.606 C 69.015 379.133,69.600 378.668,69.600 378.573 C 69.600 378.273,69.431 378.378,68.200 379.435 M65.400 381.435 L 64.200 382.466 65.500 381.606 C 66.215 381.133,66.800 380.668,66.800 380.573 C 66.800 380.273,66.631 380.378,65.400 381.435 M61.629 384.165 C 61.341 384.512,61.215 385.709,61.303 387.265 L 61.446 389.800 61.523 387.180 C 61.565 385.739,61.816 384.344,62.080 384.080 C 62.344 383.816,62.456 383.600,62.329 383.600 C 62.202 383.600,61.887 383.854,61.629 384.165 " stroke="none" fill="#890a2b" fill-rule="evenodd"></path></g></svg>